<svg xmlns="http://www.w3.org/2000/svg" xmlns:xlink="http://www.w3.org/1999/xlink" version="1.1" id="&#1057;&#1083;&#1086;&#1081;_1" x="0px" y="0px" viewBox="5.0 -10.0 100.0 135.0" enable-background="new 0 0 100 100" xml:space="preserve" height="100px" width="100px">
<path d="M92.5,30H65c0-1.4-1.1-2.5-2.5-2.5H52l23.8-19C76.3,8,76.4,7.3,76,6.7c-0.4-0.5-1.2-0.6-1.8-0.2L50,25.9L25.8,6.5  c-0.5-0.4-1.3-0.3-1.8,0.2c-0.4,0.5-0.3,1.3,0.2,1.8l23.8,19H37.5c-1.4,0-2.5,1.1-2.5,2.5H7.5C6.1,30,5,31.1,5,32.5v60  C5,93.9,6.1,95,7.5,95h85c1.4,0,2.5-1.1,2.5-2.5v-60C95,31.1,93.9,30,92.5,30z M90,90H10V35h27.5h25H90V90z"/>
<path d="M13.8,45v35c0,3.4,2.8,6.3,6.3,6.3h45c3.4,0,6.3-2.8,6.3-6.3V45c0-3.4-2.8-6.3-6.3-6.3H20C16.6,38.8,13.8,41.6,13.8,45z   M68.8,45v35c0,2.1-1.7,3.8-3.8,3.8H20c-2.1,0-3.8-1.7-3.8-3.8V45c0-2.1,1.7-3.8,3.8-3.8h45C67.1,41.3,68.8,42.9,68.8,45z"/>
<path d="M80,51.3c3.4,0,6.3-2.8,6.3-6.3s-2.8-6.3-6.3-6.3s-6.3,2.8-6.3,6.3S76.6,51.3,80,51.3z M80,41.3c2.1,0,3.8,1.7,3.8,3.8  s-1.7,3.8-3.8,3.8s-3.8-1.7-3.8-3.8S77.9,41.3,80,41.3z"/>
<path d="M80,66.3c3.4,0,6.3-2.8,6.3-6.3s-2.8-6.3-6.3-6.3s-6.3,2.8-6.3,6.3S76.6,66.3,80,66.3z M80,56.3c2.1,0,3.8,1.7,3.8,3.8  s-1.7,3.8-3.8,3.8s-3.8-1.7-3.8-3.8S77.9,56.3,80,56.3z"/>
<path d="M75,86.3h10c0.7,0,1.3-0.6,1.3-1.3s-0.6-1.3-1.3-1.3H75c-0.7,0-1.3,0.6-1.3,1.3S74.3,86.3,75,86.3z"/>
<path d="M75,81.3h10c0.7,0,1.3-0.6,1.3-1.3s-0.6-1.3-1.3-1.3H75c-0.7,0-1.3,0.6-1.3,1.3S74.3,81.3,75,81.3z"/>
<path d="M75,76.3h10c0.7,0,1.3-0.6,1.3-1.3s-0.6-1.3-1.3-1.3H75c-0.7,0-1.3,0.6-1.3,1.3S74.3,76.3,75,76.3z"/>
<text x="0.0" y="117.5" font-size="5.0" font-weight="bold" font-family="Helvetica Neue, Helvetica, Arial-Unicode, Arial, Sans-serif" fill="#000000">Created by Arthur Shlain</text><text x="0.0" y="122.5" font-size="5.0" font-weight="bold" font-family="Helvetica Neue, Helvetica, Arial-Unicode, Arial, Sans-serif" fill="#000000">from the Noun Project</text></svg>