<svg xmlns="http://www.w3.org/2000/svg" xmlns:xlink="http://www.w3.org/1999/xlink" version="1.1" id="&#1057;&#1083;&#1086;&#1081;_1" x="0px" y="0px" width="90px" height="90px" viewBox="4.5 -9.0 90.0 121.5" enable-background="new 0 0 90 90" xml:space="preserve">
<path d="M87.355,69.082V26.573c1.294-0.748,2.122-2.143,2.122-3.675c0-2.339-1.903-4.243-4.243-4.243  c-1.532,0-2.928,0.828-3.676,2.122H65.032l-20.11-4.789l-20.11,4.789H8.285c-0.748-1.294-2.144-2.122-3.676-2.122  c-2.339,0-4.243,1.904-4.243,4.243c0,1.532,0.828,2.927,2.121,3.675v42.509c-1.293,0.748-2.121,2.144-2.121,3.676  c0,2.34,1.903,4.243,4.243,4.243c1.533,0,2.928-0.828,3.676-2.122h73.273c0.748,1.294,2.144,2.122,3.676,2.122  c2.34,0,4.243-1.903,4.243-4.243C89.477,71.226,88.649,69.83,87.355,69.082z M44.921,17.079l15.53,3.698h-31.06L44.921,17.079z   M85.234,74.88c-0.898,0-1.702-0.567-2-1.414l-0.25-0.708H6.86l-0.25,0.708c-0.299,0.846-1.103,1.414-2.001,1.414  c-1.17,0-2.122-0.952-2.122-2.122c0-0.898,0.568-1.702,1.414-2.001l0.708-0.25V25.149l-0.708-0.25c-0.846-0.298-1.414-1.103-1.414-2  c0-1.17,0.952-2.122,2.122-2.122c0.899,0,1.703,0.568,2.001,1.414l0.25,0.708h76.124l0.25-0.708c0.298-0.846,1.102-1.414,2-1.414  c1.169,0,2.122,0.952,2.122,2.122c0,0.897-0.568,1.702-1.414,2l-0.708,0.25v45.358l0.708,0.25c0.847,0.299,1.414,1.103,1.414,2.001  C87.355,73.928,86.403,74.88,85.234,74.88z"/>
<path d="M6.2,71.167h77.442V24.489H6.2V71.167z M7.261,25.55h75.321v27.052H55.162c1.781-1.396,3.078-3.293,3.078-5.862  c0-12.694-12.994-17.92-13.125-17.971l-0.723-0.283v24.117h-1.062v-15.5l-10.656,15.5H7.261V25.55z M45.452,55.174V30.082  c2.659,1.276,11.728,6.385,11.728,16.658C57.179,52.938,47.903,54.792,45.452,55.174z M42.269,40.518v14.734H32.138L42.269,40.518z   M7.261,53.663h24.683l-1.823,2.651h13.208v-2.651h1.062v2.711l0.586-0.062c0.321-0.035,4.902-0.559,8.591-2.648h29.013v16.443  H7.261V53.663z"/>
<path d="M22.644,34.037c-2.047,0-3.713,1.666-3.713,3.712c0,2.047,1.666,3.713,3.713,3.713s3.713-1.666,3.713-3.713  C26.356,35.703,24.691,34.037,22.644,34.037z M22.644,40.402c-1.463,0-2.652-1.19-2.652-2.652c0-1.461,1.189-2.651,2.652-2.651  c1.462,0,2.652,1.19,2.652,2.651C25.296,39.212,24.106,40.402,22.644,40.402z"/>
<path d="M32.432,65.862H55.29l5.455-8.486H26.976L32.432,65.862z M54.709,64.801H33.011l-4.092-6.365h29.882L54.709,64.801z"/>
<text x="0.0" y="105.75" font-size="4.5" font-weight="bold" font-family="Helvetica Neue, Helvetica, Arial-Unicode, Arial, Sans-serif" fill="#000000">Created by Mike Bespalov</text><text x="0.0" y="110.25" font-size="4.5" font-weight="bold" font-family="Helvetica Neue, Helvetica, Arial-Unicode, Arial, Sans-serif" fill="#000000">from the Noun Project</text></svg>