<svg xmlns="http://www.w3.org/2000/svg" xmlns:xlink="http://www.w3.org/1999/xlink" version="1.1" x="0px" y="0px" width="100px" height="100px" viewBox="5.0 -10.0 100.0 135.0" enable-background="new 0 0 100 100" xml:space="preserve">
<g id="Captions">
</g>
<g id="Your_Icon">
	<polygon points="46.301,18.483 45.306,19.025 39.748,5.153 40.32,4.924  "/>
	<polygon points="58.311,17.925 59.352,18.373 63.599,4.045 63.007,3.869  "/>
	<circle cx="39.736" cy="4.692" r="0.702"/>
	<circle cx="63.457" cy="3.702" r="0.702"/>
	<polygon points="75.947,41.458 76.318,42.615 83.254,37.89 81.993,36.216  "/>
	<polygon points="78.137,51.204 76.935,51.382 80.463,58.996 82.32,58.025  "/>
	<path d="M89.65,27.491c-0.931-3.877-22.955-2.467-22.955-2.467s-3.405-9.25-14.8-8.663C40.501,16.949,37.095,26,37.095,26H17.642   c0,0-3.642,16.487-3.642,26.236c0,9.75,1.88,24.748,3.642,26.51s3.759,1.607,3.759,1.607L22.575,95H26.1l5.521-13.256l40.527,0.666   L75.789,94h3.524l4.581-11.934l6.813-2.031c0,0,1.292-13.762,1.292-25.273S90.961,30.277,89.65,27.491z M64.434,70.837   c0,0-10.494,3.838-21.145,3.838s-17.072-2.114-17.072-2.114s-6.344-7.714-5.756-20.519c0.587-12.804,3.955-17.776,3.955-17.776   s11.903-1.646,19.812-1.646c7.91,0,20.44,1.646,20.44,1.646s3.603,7.596,3.603,17.542C68.271,61.753,64.434,70.837,64.434,70.837z    M84,73H73v-2h11V73z M84,70H73v-1h11V70z M84,68H73v-2h11V68z M84.76,55.713c-0.497,3.008-3.34,5.043-6.349,4.545   c-3.008-0.498-5.043-3.341-4.545-6.349s3.341-5.043,6.349-4.545S85.258,52.704,84.76,55.713z M79.313,45.229   c-3.05,0-5.521-2.473-5.521-5.521s2.472-5.521,5.521-5.521c3.049,0,5.521,2.473,5.521,5.521S82.362,45.229,79.313,45.229z"/>
</g>
<text x="0.0" y="117.5" font-size="5.0" font-weight="bold" font-family="Helvetica Neue, Helvetica, Arial-Unicode, Arial, Sans-serif" fill="#000000">Created by Anshul Mathur</text><text x="0.0" y="122.5" font-size="5.0" font-weight="bold" font-family="Helvetica Neue, Helvetica, Arial-Unicode, Arial, Sans-serif" fill="#000000">from the Noun Project</text></svg>